# xmcd
#
# Track frame offsets:
#	150
#	15209
#	30198
#
# Disc length: 602 seconds
#
# Revision: 2
# Processed by: cddbd v1.5.2PL0 Copyright (c) Steve Scherf et al.
# Submitted via: audiograbber 1.83.01
#
DISCID=0c025803
DTITLE=Hermes House Band - Country Roads (Single)
DYEAR=2001
DGENRE=Après Ski
TTITLE0=Country Roads (Original Radio Edit)
TTITLE1=Country Roads (Happy Dance Version)
TTITLE2=Country Roads (Karaoke Version)
EXTD=
EXTT0=
EXTT1=
EXTT2=
PLAYORDER=
